<svg width="280" height="277" viewBox="0 0 280 277" fill="none" xmlns="http://www.w3.org/2000/svg">
<path d="M219.282 22.1227C200.733 15.6771 171.274 5.95401 158.727 2.18497C154.69 0.983246 150.871 0 150.271 0C147.707 0.0546265 108.047 12.782 80.9879 22.232C57.5298 30.4256 41.7092 36.325 30.253 41.2958L20.9788 45.2287L21.0879 57.1914C21.2516 76.9106 23.7065 104.387 26.4888 118.152L26.8161 119.681L32.5988 119.517C38.0541 119.354 38.436 119.299 38.3815 118.261C38.3269 117.66 37.6723 112.635 36.9085 107.063C34.1263 87.6169 31.9441 54.5694 33.3625 53.2038C36.3084 50.4726 113.666 23.106 144.27 13.9837L150.38 12.1812L156.599 14.0384C190.75 24.2531 264.78 50.3634 267.671 53.1492C268.762 54.2417 266.853 89.638 265.161 99.6889L264.78 101.874H232.102H199.424L188.841 83.4109L178.203 65.0026H126.759H75.3144L74.4415 63.3639C71.8775 58.4477 67.6768 55.7165 62.1124 55.2795C56.8206 54.8972 53.4383 56.2081 49.565 60.0318C43.0731 66.5867 43.0731 75.545 49.6741 81.9361C53.111 85.2681 56.2751 86.5791 60.8576 86.5791C66.0948 86.5245 70.2409 84.5034 72.8595 80.7343C73.8414 79.3141 74.7143 77.8939 74.8234 77.6207C74.987 77.1291 171.002 76.5283 171.438 77.0199C171.547 77.1838 176.348 85.3774 182.076 95.3189L192.496 113.345L227.683 113.509L262.925 113.618V114.874C262.925 117.824 258.724 137.543 257.906 138.581C257.469 139.127 249.504 139.291 221.518 139.291C201.824 139.291 185.458 139.073 185.076 138.854C184.749 138.636 179.785 130.333 174.057 120.446L163.691 102.42L135.051 102.256L106.465 102.147L105.21 100.071C101.991 94.6635 97.9542 92.3146 91.8987 92.3146C87.3162 92.3146 83.7702 93.7895 80.497 96.9577C74.2778 103.076 74.2233 112.089 80.3333 118.425C84.0429 122.303 86.1705 123.177 91.8987 123.177C96.263 123.177 97.0813 123.013 99.318 121.702C101.991 120.118 103.791 118.206 105.373 115.311L106.301 113.618L131.559 113.727L156.763 113.891L163.855 126.072C168.219 133.665 170.674 138.472 170.402 138.745C170.074 139.073 143.179 139.127 99.9726 138.909L30.0348 138.581L29.3801 137.052C28.5072 134.812 23.9793 130.825 21.4698 130.005C18.6876 129.077 13.3413 129.022 10.7227 129.951C7.12218 131.207 3.52164 134.539 1.5577 138.472C-0.0243557 141.695 -0.13347 142.35 0.0847452 145.792C0.412068 150.325 1.99412 153.384 5.70377 156.662C9.90441 160.376 15.3598 161.523 20.8697 159.83C24.3611 158.792 26.5433 157.099 28.6709 153.712L30.5803 150.762H142.634C204.934 150.762 254.742 150.981 254.742 151.254C254.742 153.057 246.831 174.688 245.74 175.835C245.14 176.436 230.52 176.49 155.563 176.162L66.0948 175.726L65.4947 174.469C65.1674 173.759 63.9126 172.066 62.6579 170.755C55.5659 162.998 42.3093 165.62 37.2358 175.835C35.872 178.566 35.872 185.23 37.2358 187.961C41.1637 195.827 50.056 199.487 57.9117 196.483C60.4757 195.499 64.4036 191.84 65.5492 189.272L66.1493 187.907H125.558C158.181 187.907 184.913 188.016 184.913 188.125C184.913 188.289 181.749 193.861 177.875 200.579L170.892 212.761L153.163 212.924L135.433 213.034L134.723 211.45C132.814 206.752 127.304 203.529 121.358 203.475C116.83 203.475 113.666 204.785 110.174 208.227C100.3 217.786 107.337 234.282 121.358 234.337C127.413 234.337 131.45 231.988 134.669 226.526L135.924 224.505H156.545H177.166L187.313 207.08C192.878 197.52 197.569 189.327 197.788 188.781C198.115 188.016 200.133 187.907 219.063 187.907C235.648 187.907 240.012 188.071 240.012 188.617C240.012 189.6 236.03 197.193 229.974 206.479C223.919 215.765 202.643 235.156 193.641 241.711C184.64 248.266 168.001 257.825 161.182 261.922C154.363 266.019 150.871 266.019 142.634 263.015C119.885 254.821 99.318 240.837 83.7156 222.866L78.9694 217.404H71.8775H64.7855L65.7675 218.878C68.5497 223.248 75.8054 231.661 82.57 238.489C97.0813 252.964 114.211 263.998 133.305 271.208C140.67 273.94 153.163 277.49 153.163 276.944C153.163 276.944 158.782 274.759 170.892 268.204C174.834 266.071 186.386 259.086 199.097 249.632C211.808 240.178 220.261 232.347 226.101 226.526C238.103 214.563 247.846 196.212 251.741 189.272C262.379 170.318 278.091 120.118 279.673 58.9393L280 45.5564L274.326 43.0437C260.906 37.0351 248.141 32.2282 219.282 22.1227Z" fill="#cef5ce" fill-opacity="0.7"/>
</svg>
